<svg width="28" height="28" viewBox="0 0 28 28" fill="none" xmlns="http://www.w3.org/2000/svg">
<g id="carbon:percentage">
<path id="Vector" d="M7.875 12.25C7.00971 12.25 6.16385 11.9934 5.44438 11.5127C4.72492 11.0319 4.16416 10.3487 3.83303 9.54924C3.5019 8.74981 3.41526 7.87015 3.58407 7.02148C3.75288 6.17282 4.16956 5.39326 4.78141 4.78141C5.39326 4.16956 6.17282 3.75288 7.02148 3.58407C7.87015 3.41526 8.74981 3.5019 9.54924 3.83303C10.3487 4.16416 11.0319 4.72492 11.5127 5.44438C11.9934 6.16385 12.25 7.00971 12.25 7.875C12.2488 9.03497 11.7875 10.1471 10.9673 10.9673C10.1471 11.7875 9.03497 12.2488 7.875 12.25ZM7.875 5.25C7.35583 5.25 6.84831 5.40396 6.41663 5.69239C5.98495 5.98083 5.6485 6.3908 5.44982 6.87046C5.25114 7.35011 5.19915 7.87791 5.30044 8.38711C5.40173 8.89631 5.65173 9.36404 6.01885 9.73116C6.38596 10.0983 6.85369 10.3483 7.36289 10.4496C7.87209 10.5508 8.39989 10.4989 8.87955 10.3002C9.3592 10.1015 9.76917 9.76505 10.0576 9.33337C10.346 8.9017 10.5 8.39418 10.5 7.875C10.4993 7.17902 10.2225 6.51175 9.73039 6.01961C9.23826 5.52748 8.57098 5.2507 7.875 5.25ZM3.5 23.2628L23.2619 3.5L24.5 4.73813L4.73725 24.5L3.5 23.2628ZM20.125 24.5C19.2597 24.5 18.4138 24.2434 17.6944 23.7627C16.9749 23.2819 16.4142 22.5987 16.083 21.7992C15.7519 20.9998 15.6653 20.1201 15.8341 19.2715C16.0029 18.4228 16.4196 17.6433 17.0314 17.0314C17.6433 16.4196 18.4228 16.0029 19.2715 15.8341C20.1201 15.6653 20.9998 15.7519 21.7992 16.083C22.5987 16.4142 23.2819 16.9749 23.7627 17.6944C24.2434 18.4138 24.5 19.2597 24.5 20.125C24.4988 21.285 24.0375 22.3971 23.2173 23.2173C22.3971 24.0375 21.285 24.4988 20.125 24.5ZM20.125 17.5C19.6058 17.5 19.0983 17.654 18.6666 17.9424C18.235 18.2308 17.8985 18.6408 17.6998 19.1205C17.5011 19.6001 17.4492 20.1279 17.5504 20.6371C17.6517 21.1463 17.9017 21.614 18.2688 21.9812C18.636 22.3483 19.1037 22.5983 19.6129 22.6996C20.1221 22.8008 20.6499 22.7489 21.1295 22.5502C21.6092 22.3515 22.0192 22.0151 22.3076 21.5834C22.596 21.1517 22.75 20.6442 22.75 20.125C22.7493 19.429 22.4725 18.7617 21.9804 18.2696C21.4883 17.7775 20.821 17.5007 20.125 17.5Z" fill="#331D2C"/>
</g>
</svg>
