<svg width="20" height="20" viewBox="0 0 20 20" fill="none" xmlns="http://www.w3.org/2000/svg">
<g id="fluent:math-formula-24-regular" clip-path="url(#clip0_306_185)">
<path id="Vector" d="M10.3569 3.87347C9.53244 3.26122 8.35988 3.80585 8.29173 4.83197L8.17396 6.60258H10.185C10.3324 6.60258 10.4737 6.6613 10.5778 6.7658C10.682 6.87031 10.7406 7.01205 10.7406 7.15985C10.7406 7.30765 10.682 7.44939 10.5778 7.5539C10.4737 7.6584 10.3324 7.71712 10.185 7.71712H8.09989L7.65545 14.4088C7.52212 16.4038 5.16811 17.3823 3.66816 16.0657L3.52297 15.9379C3.41208 15.8406 3.34427 15.703 3.33448 15.5555C3.32469 15.408 3.37371 15.2627 3.47075 15.1514C3.5678 15.0402 3.70493 14.9722 3.85196 14.9623C3.999 14.9525 4.14391 15.0017 4.25481 15.099L4.39925 15.2261C5.20737 15.9357 6.47549 15.4089 6.54659 14.3345L6.98658 7.71712H5.37033C5.22299 7.71712 5.08169 7.6584 4.9775 7.5539C4.87332 7.44939 4.81479 7.30765 4.81479 7.15985C4.81479 7.01205 4.87332 6.87031 4.9775 6.7658C5.08169 6.6613 5.22299 6.60258 5.37033 6.60258H7.06065L7.18287 4.75766C7.30954 2.85182 9.488 1.84056 11.0183 2.97813L11.2931 3.18246C11.3544 3.22495 11.4065 3.27935 11.4463 3.34243C11.4862 3.40551 11.513 3.47599 11.5251 3.54967C11.5373 3.62335 11.5346 3.69873 11.5172 3.77133C11.4997 3.84394 11.4679 3.91229 11.4236 3.97231C11.3793 4.03234 11.3234 4.08282 11.2593 4.12076C11.1952 4.1587 11.1241 4.18332 11.0503 4.19316C10.9765 4.203 10.9014 4.19786 10.8297 4.17804C10.7579 4.15823 10.6908 4.12414 10.6324 4.0778L10.3569 3.87347ZM11.2679 10.5131C11.2291 10.439 11.1741 10.3747 11.107 10.3248C11.0399 10.275 10.9625 10.241 10.8805 10.2252C10.7985 10.2095 10.7141 10.2126 10.6334 10.2341C10.5528 10.2556 10.478 10.2951 10.4146 10.3496L10.1761 10.5547C10.1208 10.6029 10.0565 10.6397 9.987 10.6628C9.91747 10.686 9.84406 10.6952 9.77099 10.6898C9.69791 10.6844 9.62663 10.6645 9.56123 10.6314C9.49584 10.5982 9.43762 10.5524 9.38995 10.4966C9.34227 10.4408 9.30607 10.3761 9.28344 10.3062C9.2608 10.2363 9.25217 10.1626 9.25805 10.0893C9.26393 10.0161 9.28419 9.94468 9.31768 9.87931C9.35117 9.81394 9.39722 9.75586 9.45318 9.70841L9.69169 9.50334C9.88175 9.33981 10.1061 9.22134 10.3481 9.15673C10.5901 9.09213 10.8434 9.08305 11.0894 9.13016C11.3353 9.17728 11.5675 9.27938 11.7688 9.42889C11.97 9.57839 12.135 9.77146 12.2516 9.99373L12.9753 11.3743L14.9775 9.36588C15.0287 9.31268 15.0901 9.27026 15.1579 9.24108C15.2256 9.21191 15.2986 9.19657 15.3723 9.19596C15.4461 9.19536 15.5192 9.20949 15.5875 9.23754C15.6557 9.26559 15.7178 9.307 15.7699 9.35935C15.822 9.4117 15.8633 9.47394 15.8912 9.54244C15.9191 9.61093 15.9331 9.68432 15.9324 9.75831C15.9317 9.83231 15.9164 9.90542 15.8872 9.9734C15.8581 10.0414 15.8157 10.1028 15.7626 10.1542L13.5175 12.4071L14.6575 14.5797C14.6964 14.6538 14.7514 14.7181 14.8184 14.7679C14.8855 14.8178 14.9629 14.8518 15.0449 14.8675C15.1269 14.8832 15.2113 14.8802 15.292 14.8587C15.3727 14.8371 15.4474 14.7976 15.5108 14.7431L15.7493 14.538C15.8613 14.4419 16.0068 14.3943 16.1537 14.4057C16.3007 14.4171 16.4371 14.4867 16.533 14.599C16.6289 14.7113 16.6763 14.8572 16.6649 15.0047C16.6535 15.1521 16.5842 15.2889 16.4722 15.3851L16.2337 15.5894C16.0437 15.753 15.8193 15.8714 15.5773 15.936C15.3354 16.0006 15.082 16.0097 14.836 15.9626C14.5901 15.9155 14.3579 15.8134 14.1567 15.6639C13.9555 15.5144 13.7904 15.3213 13.6738 15.099L12.6946 13.2318L10.2072 15.7269C10.1564 15.7816 10.095 15.8255 10.0269 15.856C9.95875 15.8865 9.88519 15.9028 9.8106 15.9042C9.736 15.9055 9.66191 15.8917 9.59273 15.8637C9.52356 15.8357 9.46072 15.7939 9.40797 15.741C9.35522 15.6881 9.31363 15.6251 9.28569 15.5557C9.25775 15.4863 9.24402 15.412 9.24534 15.3372C9.24666 15.2623 9.26298 15.1885 9.29335 15.1202C9.32371 15.0518 9.36749 14.9903 9.42207 14.9393L12.1531 12.1998L11.2679 10.5131Z" fill="#331D2C"/>
<path id="Vector_2" d="M1.66675 16.7424V2.42425C1.66675 2.00232 1.83436 1.59766 2.13271 1.29931C2.43107 1.00096 2.83572 0.833344 3.25766 0.833344H17.5758C17.9978 0.833344 18.4024 1.00096 18.7008 1.29931C18.9991 1.59766 19.1667 2.00232 19.1667 2.42425V16.7424C19.1667 17.1644 18.9991 17.569 18.7008 17.8674C18.4024 18.1657 17.9978 18.3333 17.5758 18.3333H3.25766C2.83572 18.3333 2.43107 18.1657 2.13271 17.8674C1.83436 17.569 1.66675 17.1644 1.66675 16.7424Z" stroke="#331D2C" stroke-width="1.5"/>
</g>
<defs>
<clipPath id="clip0_306_185">
<rect width="20" height="20" fill="white"/>
</clipPath>
</defs>
</svg>
