<svg width="36" height="36" viewBox="0 0 36 36" fill="none" xmlns="http://www.w3.org/2000/svg">
<g id="healthicons:c">
<path id="Vector" fill-rule="evenodd" clip-rule="evenodd" d="M23.3032 12.6968C22.2543 11.6478 20.918 10.9335 19.4631 10.6441C18.0082 10.3547 16.5002 10.5032 15.1298 11.0709C13.7593 11.6385 12.588 12.5998 11.7639 13.8332C10.9397 15.0666 10.4999 16.5166 10.4999 18C10.4999 19.4834 10.9397 20.9334 11.7639 22.1668C12.588 23.4002 13.7593 24.3615 15.1298 24.9291C16.5002 25.4968 18.0082 25.6453 19.4631 25.3559C20.918 25.0665 22.2543 24.3522 23.3032 23.3033C23.5846 23.0219 23.9662 22.8638 24.3641 22.8638C24.762 22.8638 25.1436 23.0219 25.425 23.3033C25.7063 23.5846 25.8644 23.9662 25.8644 24.3641C25.8644 24.762 25.7063 25.1436 25.425 25.425C23.9565 26.8933 22.0856 27.8933 20.0488 28.2983C18.012 28.7034 15.9009 28.4954 13.9823 27.7006C12.0637 26.9059 10.4239 25.5601 9.27023 23.8334C8.11652 22.1067 7.50073 20.0767 7.50073 18C7.50073 15.9233 8.11652 13.8933 9.27023 12.1666C10.4239 10.4399 12.0637 9.09412 13.9823 8.29937C15.9009 7.50462 18.012 7.29662 20.0488 7.70168C22.0856 8.10674 23.9565 9.10666 25.425 10.575C25.5643 10.7143 25.6748 10.8797 25.7502 11.0617C25.8256 11.2438 25.8644 11.4389 25.8644 11.6359C25.8644 11.8329 25.8256 12.028 25.7502 12.21C25.6748 12.392 25.5643 12.5574 25.425 12.6968C25.2857 12.8361 25.1203 12.9466 24.9382 13.022C24.7562 13.0974 24.5611 13.1362 24.3641 13.1362C24.1671 13.1362 23.972 13.0974 23.79 13.022C23.6079 12.9466 23.4425 12.8361 23.3032 12.6968Z" fill="#331D2C"/>
</g>
</svg>
