<svg width="32" height="32" viewBox="0 0 32 32" fill="none" xmlns="http://www.w3.org/2000/svg">
<g id="ic:round-equals">
<path id="Vector" d="M24.0001 13.3307H8.00008C7.64646 13.3307 7.30732 13.1902 7.05727 12.9401C6.80722 12.6901 6.66675 12.351 6.66675 11.9973C6.66675 11.6437 6.80722 11.3046 7.05727 11.0545C7.30732 10.8045 7.64646 10.664 8.00008 10.664H24.0001C24.3537 10.664 24.6928 10.8045 24.9429 11.0545C25.1929 11.3046 25.3334 11.6437 25.3334 11.9973C25.3334 12.351 25.1929 12.6901 24.9429 12.9401C24.6928 13.1902 24.3537 13.3307 24.0001 13.3307ZM24.0001 21.3307H8.00008C7.64646 21.3307 7.30732 21.1902 7.05727 20.9401C6.80722 20.6901 6.66675 20.351 6.66675 19.9973C6.66675 19.6437 6.80722 19.3046 7.05727 19.0545C7.30732 18.8045 7.64646 18.664 8.00008 18.664H24.0001C24.3537 18.664 24.6928 18.8045 24.9429 19.0545C25.1929 19.3046 25.3334 19.6437 25.3334 19.9973C25.3334 20.351 25.1929 20.6901 24.9429 20.9401C24.6928 21.1902 24.3537 21.3307 24.0001 21.3307Z" fill="#331D2C"/>
</g>
</svg>
