<svg width="20" height="20" viewBox="0 0 20 20" fill="none" xmlns="http://www.w3.org/2000/svg">
<g id="iconoir:calculator" clip-path="url(#clip0_306_172)">
<g id="Group">
<path id="Vector" d="M0.833252 17.5V2.50001C0.833252 2.05798 1.00885 1.63406 1.32141 1.3215C1.63397 1.00894 2.05789 0.833344 2.49992 0.833344H17.4999C17.9419 0.833344 18.3659 1.00894 18.6784 1.3215C18.991 1.63406 19.1666 2.05798 19.1666 2.50001V17.5C19.1666 17.942 18.991 18.366 18.6784 18.6785C18.3659 18.9911 17.9419 19.1667 17.4999 19.1667H2.49992C2.05789 19.1667 1.63397 18.9911 1.32141 18.6785C1.00885 18.366 0.833252 17.942 0.833252 17.5Z" stroke="#331D2C" stroke-width="1.5"/>
<path id="Vector_2" d="M12.4998 5.83335H15.8332M12.4998 12.9167H15.8332M12.4998 15.4167H15.8332M4.1665 5.83335H5.83317M5.83317 5.83335H7.49984M5.83317 5.83335V4.16669M5.83317 5.83335V7.50002M4.65484 15.345L5.83317 14.1667M5.83317 14.1667L7.01234 12.9884M5.83317 14.1667L4.65484 12.9884M5.83317 14.1667L7.01234 15.345" stroke="#331D2C" stroke-width="1.5" stroke-linecap="round" stroke-linejoin="round"/>
</g>
</g>
<defs>
<clipPath id="clip0_306_172">
<rect width="20" height="20" fill="white"/>
</clipPath>
</defs>
</svg>
