<svg width="30" height="30" viewBox="0 0 30 30" fill="none" xmlns="http://www.w3.org/2000/svg">
<g id="iconamoon:menu-burger-horizontal-fill">
<path id="Vector" fill-rule="evenodd" clip-rule="evenodd" d="M4.375 6.25C4.04348 6.25 3.72554 6.3817 3.49112 6.61612C3.2567 6.85054 3.125 7.16848 3.125 7.5C3.125 7.83152 3.2567 8.14946 3.49112 8.38388C3.72554 8.6183 4.04348 8.75 4.375 8.75H25.625C25.9565 8.75 26.2745 8.6183 26.5089 8.38388C26.7433 8.14946 26.875 7.83152 26.875 7.5C26.875 7.16848 26.7433 6.85054 26.5089 6.61612C26.2745 6.3817 25.9565 6.25 25.625 6.25H4.375ZM3.125 15C3.125 14.6685 3.2567 14.3505 3.49112 14.1161C3.72554 13.8817 4.04348 13.75 4.375 13.75H25.625C25.9565 13.75 26.2745 13.8817 26.5089 14.1161C26.7433 14.3505 26.875 14.6685 26.875 15C26.875 15.3315 26.7433 15.6495 26.5089 15.8839C26.2745 16.1183 25.9565 16.25 25.625 16.25H4.375C4.04348 16.25 3.72554 16.1183 3.49112 15.8839C3.2567 15.6495 3.125 15.3315 3.125 15ZM3.125 22.5012C3.125 22.1697 3.2567 21.8518 3.49112 21.6174C3.72554 21.3829 4.04348 21.2512 4.375 21.2512H25.625C25.9565 21.2512 26.2745 21.3829 26.5089 21.6174C26.7433 21.8518 26.875 22.1697 26.875 22.5012C26.875 22.8328 26.7433 23.1507 26.5089 23.3851C26.2745 23.6196 25.9565 23.7512 25.625 23.7512H4.375C4.04348 23.7512 3.72554 23.6196 3.49112 23.3851C3.2567 23.1507 3.125 22.8328 3.125 22.5012Z" fill="#331D2C"/>
</g>
</svg>
