<svg width="28" height="28" viewBox="0 0 28 28" fill="none" xmlns="http://www.w3.org/2000/svg">
<g id="mdi:erase-outline">
<path id="Vector" d="M22.1667 18.1883L20.5217 19.8333L16.3333 15.645L12.145 19.8333L10.5 18.1883L14.6883 14L10.5 9.81167L12.145 8.16667L16.3333 12.355L20.5217 8.16667L22.1667 9.81167L17.9783 14L22.1667 18.1883ZM25.6667 3.5C26.2855 3.5 26.879 3.74583 27.3166 4.18342C27.7542 4.621 28 5.21449 28 5.83333V22.1667C28 22.7855 27.7542 23.379 27.3166 23.8166C26.879 24.2542 26.2855 24.5 25.6667 24.5H8.16667C7.36167 24.5 6.73167 24.08 6.31167 23.4617L0 14L6.31167 4.52667C6.73167 3.90833 7.36167 3.5 8.16667 3.5H25.6667ZM25.6667 5.83333H8.16667L2.66 14L8.16667 22.1667H25.6667V5.83333Z" fill="#331D2C"/>
</g>
</svg>
