<svg width="36" height="36" viewBox="0 0 36 36" fill="none" xmlns="http://www.w3.org/2000/svg">
<g id="mdi:division">
<path id="Vector" d="M28.5 19.5H7.5V16.5H28.5V19.5ZM18 7.5C18.7956 7.5 19.5587 7.81607 20.1213 8.37868C20.6839 8.94129 21 9.70435 21 10.5C21 11.2956 20.6839 12.0587 20.1213 12.6213C19.5587 13.1839 18.7956 13.5 18 13.5C17.2044 13.5 16.4413 13.1839 15.8787 12.6213C15.3161 12.0587 15 11.2956 15 10.5C15 9.70435 15.3161 8.94129 15.8787 8.37868C16.4413 7.81607 17.2044 7.5 18 7.5ZM18 22.5C18.7956 22.5 19.5587 22.8161 20.1213 23.3787C20.6839 23.9413 21 24.7044 21 25.5C21 26.2956 20.6839 27.0587 20.1213 27.6213C19.5587 28.1839 18.7956 28.5 18 28.5C17.2044 28.5 16.4413 28.1839 15.8787 27.6213C15.3161 27.0587 15 26.2956 15 25.5C15 24.7044 15.3161 23.9413 15.8787 23.3787C16.4413 22.8161 17.2044 22.5 18 22.5Z" fill="#331D2C"/>
</g>
</svg>
