<svg width="25" height="25" viewBox="0 0 25 25" fill="none" xmlns="http://www.w3.org/2000/svg">
<g id="solar:moon-bold-duotone">
<g id="Group">
<path id="Vector" opacity="0.5" fill-rule="evenodd" clip-rule="evenodd" d="M22.9166 12.5C22.9166 18.2531 18.2531 22.9167 12.4999 22.9167C11.3219 22.9181 10.1521 22.7195 9.04055 22.3292C8.57197 21.1941 8.33163 19.9779 8.33326 18.75C8.3304 16.5272 9.12002 14.3763 10.5603 12.6833C11.1819 13.5909 12.0155 14.3332 12.9888 14.8458C13.9621 15.3584 15.0457 15.6258 16.1458 15.625C17.3126 15.6256 18.4598 15.3244 19.4759 14.7508C20.492 14.1771 21.3424 13.3504 21.9447 12.351C22.1947 11.9385 22.9166 12.0177 22.9166 12.5Z" fill="#A78295"/>
<path id="Vector_2" d="M2.08325 12.5C2.08325 17.0406 4.98846 20.9021 9.04054 22.3281C8.5721 21.1934 8.33176 19.9776 8.33325 18.75C8.33325 16.4365 9.17179 14.3177 10.5603 12.6833C9.78598 11.5567 9.37255 10.2212 9.37492 8.85417C9.37434 7.68732 9.6755 6.54015 10.2492 5.52406C10.8228 4.50797 11.6495 3.65749 12.6489 3.05521C13.0624 2.80521 12.9822 2.08333 12.4999 2.08333C6.74679 2.08333 2.08325 6.74687 2.08325 12.5Z" fill="#3F2E3E"/>
</g>
</g>
</svg>
