<svg width="20" height="20" viewBox="0 0 20 20" fill="none" xmlns="http://www.w3.org/2000/svg">
<g id="solar:graph-new-broken" clip-path="url(#clip0_306_178)">
<g id="Group">
<path id="Vector" d="M18.3334 8.74999V9.99999C18.3334 13.9283 18.3334 15.8925 17.1126 17.1125C15.8934 18.3333 13.9284 18.3333 10.0001 18.3333C6.07175 18.3333 4.10758 18.3333 2.88675 17.1125C1.66675 15.8933 1.66675 13.9283 1.66675 9.99999C1.66675 9.05999 1.66675 8.23166 1.68341 7.49999M11.2501 1.66666H10.0001C6.07175 1.66666 4.10758 1.66666 2.88675 2.88666C2.52008 3.25416 2.26258 3.68916 2.08341 4.22499" stroke="#331D2C" stroke-width="1.5" stroke-linecap="round"/>
<path id="Vector_2" d="M5.8335 11.6666L7.331 9.86998C7.92433 9.15748 8.221 8.80165 8.611 8.80165C9.00183 8.80165 9.2985 9.15748 9.89183 9.86998L10.1085 10.13C10.7018 10.8425 10.9985 11.1983 11.3893 11.1983C11.7793 11.1983 12.076 10.8425 12.6693 10.13L14.1668 8.33331" stroke="#331D2C" stroke-width="1.5" stroke-linecap="round"/>
<path id="Vector_3" d="M15.8335 6.66666C17.2142 6.66666 18.3335 5.54737 18.3335 4.16666C18.3335 2.78594 17.2142 1.66666 15.8335 1.66666C14.4528 1.66666 13.3335 2.78594 13.3335 4.16666C13.3335 5.54737 14.4528 6.66666 15.8335 6.66666Z" stroke="#331D2C" stroke-width="1.5"/>
</g>
</g>
<defs>
<clipPath id="clip0_306_178">
<rect width="20" height="20" fill="white"/>
</clipPath>
</defs>
</svg>
