<svg width="24" height="25" viewBox="0 0 24 25" fill="none" xmlns="http://www.w3.org/2000/svg">
<g id="solar:sun-bold-duotone">
<g id="Group">
<path id="Vector" d="M18 12.5C18 14.0913 17.3679 15.6174 16.2426 16.7426C15.1174 17.8679 13.5913 18.5 12 18.5C10.4087 18.5 8.88258 17.8679 7.75736 16.7426C6.63214 15.6174 6 14.0913 6 12.5C6 10.9087 6.63214 9.38258 7.75736 8.25736C8.88258 7.13214 10.4087 6.5 12 6.5C13.5913 6.5 15.1174 7.13214 16.2426 8.25736C17.3679 9.38258 18 10.9087 18 12.5Z" fill="#3F2E3E"/>
<path id="Vector_2" fill-rule="evenodd" clip-rule="evenodd" d="M12 1.75C12.1989 1.75 12.3897 1.82902 12.5303 1.96967C12.671 2.11032 12.75 2.30109 12.75 2.5V3.5C12.75 3.69891 12.671 3.88968 12.5303 4.03033C12.3897 4.17098 12.1989 4.25 12 4.25C11.8011 4.25 11.6103 4.17098 11.4697 4.03033C11.329 3.88968 11.25 3.69891 11.25 3.5V2.5C11.25 2.30109 11.329 2.11032 11.4697 1.96967C11.6103 1.82902 11.8011 1.75 12 1.75ZM1.25 12.5C1.25 12.3011 1.32902 12.1103 1.46967 11.9697C1.61032 11.829 1.80109 11.75 2 11.75H3C3.19891 11.75 3.38968 11.829 3.53033 11.9697C3.67098 12.1103 3.75 12.3011 3.75 12.5C3.75 12.6989 3.67098 12.8897 3.53033 13.0303C3.38968 13.171 3.19891 13.25 3 13.25H2C1.80109 13.25 1.61032 13.171 1.46967 13.0303C1.32902 12.8897 1.25 12.6989 1.25 12.5ZM20.25 12.5C20.25 12.3011 20.329 12.1103 20.4697 11.9697C20.6103 11.829 20.8011 11.75 21 11.75H22C22.1989 11.75 22.3897 11.829 22.5303 11.9697C22.671 12.1103 22.75 12.3011 22.75 12.5C22.75 12.6989 22.671 12.8897 22.5303 13.0303C22.3897 13.171 22.1989 13.25 22 13.25H21C20.8011 13.25 20.6103 13.171 20.4697 13.0303C20.329 12.8897 20.25 12.6989 20.25 12.5ZM12 20.75C12.1989 20.75 12.3897 20.829 12.5303 20.9697C12.671 21.1103 12.75 21.3011 12.75 21.5V22.5C12.75 22.6989 12.671 22.8897 12.5303 23.0303C12.3897 23.171 12.1989 23.25 12 23.25C11.8011 23.25 11.6103 23.171 11.4697 23.0303C11.329 22.8897 11.25 22.6989 11.25 22.5V21.5C11.25 21.3011 11.329 21.1103 11.4697 20.9697C11.6103 20.829 11.8011 20.75 12 20.75Z" fill="#3F2E3E"/>
<path id="Vector_3" opacity="0.5" d="M4.39811 4.898C4.46776 4.82831 4.55046 4.77302 4.64149 4.7353C4.73251 4.69758 4.83008 4.67816 4.92861 4.67816C5.02714 4.67816 5.12471 4.69758 5.21573 4.7353C5.30676 4.77302 5.38946 4.82831 5.45911 4.898L5.85211 5.291C5.98459 5.43318 6.05671 5.62122 6.05328 5.81552C6.04986 6.00983 5.97114 6.19521 5.83373 6.33262C5.69632 6.47004 5.51093 6.54875 5.31663 6.55218C5.12233 6.5556 4.93428 6.48348 4.79211 6.351L4.39811 5.959C4.25766 5.81838 4.17877 5.62775 4.17877 5.429C4.17877 5.23025 4.25766 5.03963 4.39811 4.899V4.898ZM19.6001 4.899C19.7406 5.03963 19.8194 5.23025 19.8194 5.429C19.8194 5.62775 19.7406 5.81838 19.6001 5.959L19.2081 6.352C19.0659 6.48448 18.8779 6.5566 18.6836 6.55318C18.4893 6.54975 18.3039 6.47104 18.1665 6.33362C18.0291 6.19621 17.9504 6.01083 17.9469 5.81652C17.9435 5.62222 18.0156 5.43418 18.1481 5.292L18.5401 4.899C18.6807 4.75855 18.8714 4.67966 19.0701 4.67966C19.2689 4.67966 19.4595 4.75855 19.6001 4.899ZM18.1471 18.647C18.2168 18.5773 18.2995 18.522 18.3905 18.4843C18.4815 18.4466 18.5791 18.4272 18.6776 18.4272C18.7761 18.4272 18.8737 18.4466 18.9647 18.4843C19.0558 18.522 19.1385 18.5773 19.2081 18.647L19.6011 19.04C19.7336 19.1822 19.8057 19.3702 19.8023 19.5645C19.7989 19.7588 19.7201 19.9442 19.5827 20.0816C19.4453 20.219 19.2599 20.2977 19.0656 20.3012C18.8713 20.3046 18.6833 20.2325 18.5411 20.1L18.1471 19.708C18.0067 19.5674 17.9278 19.3768 17.9278 19.178C17.9278 18.9793 18.0067 18.7886 18.1471 18.648V18.647ZM5.85211 18.648C5.99256 18.7886 6.07145 18.9793 6.07145 19.178C6.07145 19.3768 5.99256 19.5674 5.85211 19.708L5.45911 20.101C5.39045 20.1747 5.30765 20.2338 5.21565 20.2748C5.12365 20.3158 5.02433 20.3378 4.92363 20.3396C4.82293 20.3414 4.7229 20.3228 4.62951 20.2851C4.53612 20.2474 4.45129 20.1913 4.38007 20.12C4.30885 20.0488 4.25271 19.964 4.21499 19.8706C4.17726 19.7772 4.15874 19.6772 4.16052 19.5765C4.16229 19.4758 4.18434 19.3765 4.22533 19.2845C4.26632 19.1925 4.32542 19.1097 4.39911 19.041L4.79111 18.648C4.93173 18.5076 5.12236 18.4287 5.32111 18.4287C5.51986 18.4287 5.71048 18.5076 5.85111 18.648H5.85211Z" fill="#A78295"/>
</g>
</g>
</svg>
